<?xml version="1.0" encoding="UTF-8"?>
<svg id="Layer_1" data-name="Layer 1" xmlns="http://www.w3.org/2000/svg" width="137.94" height="57.23" xmlns:xlink="http://www.w3.org/1999/xlink" viewBox="0 0 137.94 57.23">
  <defs>
    <linearGradient id="linear-gradient" x1="104.66" y1="40.84" x2="122.6" y2="9.77" gradientUnits="userSpaceOnUse">
      <stop offset=".4" stop-color="#000"/>
      <stop offset=".5" stop-color="#fff"/>
      <stop offset=".6" stop-color="#000"/>
    </linearGradient>
  </defs>
  <g>
    <path d="M113.63,8.37c9.34,0,16.94,7.6,16.94,16.94s-7.6,16.94-16.94,16.94-16.94-7.6-16.94-16.94,7.6-16.94,16.94-16.94M113.63,7.37c-9.91,0-17.94,8.03-17.94,17.94s8.03,17.94,17.94,17.94,17.94-8.03,17.94-17.94-8.03-17.94-17.94-17.94h0Z"/>
    <circle cx="113.63" cy="25.3" r="17.94" style="fill: url(#linear-gradient);"/>
  </g>
  <circle cx="113.63" cy="25.3" r="7.89" style="fill: #1f83ff;"/>
  <g>
    <rect y="6.66" width="95.7" height="35.87" style="fill: none;"/>
    <path d="M22.91,38.95h-7.14l-4.52-10.83h-2.58l-1.82,10.83H.68L5.43,12.05h9.2c2.96,0,5.28.63,6.94,1.88,1.66,1.25,2.49,3.01,2.49,5.26s-.6,3.96-1.79,5.34c-1.19,1.38-2.8,2.32-4.83,2.83l5.47,11.59ZM12.31,23.57c1.7,0,3.01-.28,3.95-.83.94-.55,1.41-1.44,1.41-2.64,0-1.11-.39-1.86-1.18-2.27-.79-.4-1.84-.6-3.15-.6h-2.7l-1.14,6.35h2.81Z"/>
    <path d="M25.61,38.95l4.75-26.9h17.21l-.95,5.4h-11.17l-.91,5.21h10.64l-.91,5.09h-10.64l-.99,5.78h12.24l-.95,5.43h-18.32Z"/>
    <path d="M62.59,17.49l-3.8,21.47h-6.31l3.76-21.47h-7.52l.99-5.43h21.2l-.95,5.43h-7.37Z"/>
    <path d="M91.16,38.95h-7.14l-4.52-10.83h-2.58l-1.82,10.83h-6.16l4.75-26.9h9.2c2.96,0,5.28.63,6.94,1.88,1.66,1.25,2.49,3.01,2.49,5.26s-.6,3.96-1.79,5.34c-1.19,1.38-2.8,2.32-4.82,2.83l5.47,11.59ZM80.56,23.57c1.7,0,3.01-.28,3.95-.83s1.41-1.44,1.41-2.64c0-1.11-.39-1.86-1.18-2.27-.79-.4-1.84-.6-3.15-.6h-2.7l-1.14,6.35h2.81Z"/>
  </g>
  <polyline points="113.63 25.3 108.25 28.12 99.84 22.22 90.69 .39" style="fill: none; stroke: #cb3c32; stroke-miterlimit: 10; stroke-width: 2px;"/>
  <polyline points="137.61 18.09 122.12 12.63 118.28 20.75 114.13 25.3" style="fill: none; stroke: #399746; stroke-miterlimit: 10; stroke-width: 2px;"/>
  <polyline points="129.89 42.53 127.39 31.02 118.41 33.19 115.35 28.63 113.78 25.87" style="fill: none; stroke: #9259a3; stroke-miterlimit: 10; stroke-width: 2px;"/>
  <path d="M113.63,26.39c-.59,0-1.09-.5-1.09-1.09s.5-1.09,1.09-1.09,1.09.5,1.09,1.09-.5,1.09-1.09,1.09Z" style="fill: #fff; stroke: #000; stroke-miterlimit: 10; stroke-width: .75px;"/>
</svg>